Coordinates
version=1
nRows=29
nColumns=24
inDegrees=yes

Units are S.I. units (second, meters, Newtons, ...)
Angles are in degrees.

endheader
time	pelvis_tilt	pelvis_list	pelvis_rotation	pelvis_tx	pelvis_ty	pelvis_tz	hip_flexion_r	hip_adduction_r	hip_rotation_r	knee_angle_r	ankle_angle_r	subtalar_angle_r	mtp_angle_r	hip_flexion_l	hip_adduction_l	hip_rotation_l	knee_angle_l	ankle_angle_l	subtalar_angle_l	mtp_angle_l	lumbar_extension	lumbar_bending	lumbar_rotation
      2.70000000	     56.85921506	      4.22859053	     -3.88652269	      1.28726132	      1.04467445	     -0.28782323	     22.25036799	     -4.90319251	      5.08133985	     -5.98868585	    -30.20770702	      0.00000000	      0.00000000	     14.63042914	    -11.11652479	     -5.27973909	    -63.56845410	    -14.05904393	      0.00000000	      0.00000000	      0.00000000	      0.00000000	      0.00000000
      2.71000000	     56.86289425	      4.22301587	     -3.88379504	      1.28720841	      1.04468034	     -0.28781684	     22.23757042	     -4.89822878	      5.08690783	     -5.98521547	    -30.19409879	      0.00000000	      0.00000000	     14.62490402	    -11.11908216	     -5.27546308	    -63.56818331	    -14.05886564	      0.00000000	      0.00000000	      0.00000000	      0.00000000	      0.00000000
      2.72000000	     56.85822843	      4.21206586	     -3.88178237	      1.28709447	      1.04469371	     -0.28780708	     22.22675052	     -4.89188674	      5.10609227	     -5.98250087	    -30.17116181	      0.00000000	      0.00000000	     14.62776351	    -11.12409506	     -5.26805830	    -63.56080028	    -14.06000690	      0.00000000	      0.00000000	      0.00000000	      0.00000000	      0.00000000
      2.73000000	     56.84959304	      4.20104114	     -3.88023590	      1.28702929	      1.04471133	     -0.28781368	     22.22204947	     -4.88208312	      5.13299063	     -5.98041052	    -30.14386574	      0.00000000	      0.00000000	     14.63546549	    -11.13028895	     -5.25977058	    -63.55006903	    -14.06201720	      0.00000000	      0.00000000	      0.00000000	      0.00000000	      0.00000000
      2.74000000	     56.83975163	      4.19354312	     -3.87924755	      1.28702386	      1.04472229	     -0.28782487	     22.22485683	     -4.86982548	      5.16043834	     -5.98017298	    -30.11778941	      0.00000000	      0.00000000	     14.64432945	    -11.13604184	     -5.25286319	    -63.54033380	    -14.06431159	      0.00000000	      0.00000000	      0.00000000	      0.00000000	      0.00000000
      2.75000000	     56.83007060	      4.19058384	     -3.87920872	      1.28703889	      1.04472264	     -0.28782419	     22.23349057	     -4.85825526	      5.18251547	     -5.98349045	    -30.09730278	      0.00000000	      0.00000000	     14.65221671	    -11.14015745	     -5.24873193	    -63.53438662	    -14.06629346	      0.00000000	      0.00000000	      0.00000000	      0.00000000	      0.00000000
      2.76000000	     56.82184571	      4.19146045	     -3.88013975	      1.28705379	      1.04471682	     -0.28781341	     22.24491861	     -4.85008496	      5.19606189	     -5.99091393	    -30.08445250	      0.00000000	      0.00000000	     14.65854874	    -11.14208130	     -5.24757124	    -63.53274018	    -14.06749445	      0.00000000	      0.00000000	      0.00000000	      0.00000000	      0.00000000
      2.77000000	     56.81645327	      4.19467748	     -3.88147119	      1.28706350	      1.04470944	     -0.28780541	     22.25617158	     -4.84609266	      5.20092926	     -6.00119611	    -30.07884000	      0.00000000	      0.00000000	     14.66335915	    -11.14178665	     -5.24851948	    -63.53417431	    -14.06768294	      0.00000000	      0.00000000	      0.00000000	      0.00000000	      0.00000000
      2.78000000	     56.81463189	      4.19863544	     -3.88228905	      1.28706394	      1.04470269	     -0.28780730	     22.26485241	     -4.84528839	      5.19923163	     -6.01184471	    -30.07830631	      0.00000000	      0.00000000	     14.66643359	    -11.13961707	     -5.25010466	    -63.53681286	    -14.06690139	      0.00000000	      0.00000000	      0.00000000	      0.00000000	      0.00000000
      2.79000000	     56.81616096	      4.20209907	     -3.88179734	      1.28705523	      1.04469902	     -0.28781567	     22.26929407	     -4.84597949	      5.19413011	     -6.02016309	    -30.07999985	      0.00000000	      0.00000000	     14.66715713	    -11.13619298	     -5.25079976	    -63.53899899	    -14.06542844	      0.00000000	      0.00000000	      0.00000000	      0.00000000	      0.00000000
      2.80000000	     56.82029729	      4.20440591	     -3.87975138	      1.28704269	      1.04470038	     -0.28782436	     22.26873438	     -4.84672569	      5.18868038	     -6.02413310	    -30.08139538	      0.00000000	      0.00000000	     14.66493547	    -11.13232179	     -5.24950727	    -63.53969570	    -14.06368863	      0.00000000	      0.00000000	      0.00000000	      0.00000000	      0.00000000
      2.81000000	     56.82629749	      4.20538803	     -3.87654234	      1.28703219	      1.04470486	     -0.28782985	     22.26335439	     -4.84672236	      5.18506141	     -6.02291320	    -30.08095447	      0.00000000	      0.00000000	     14.65959943	    -11.12877912	     -5.24588294	    -63.53855222	    -14.06214002	      0.00000000	      0.00000000	      0.00000000	      0.00000000	      0.00000000
      2.82000000	     56.83361856	      4.20515932	     -3.87293154	      1.28702672	      1.04470935	     -0.28783125	     22.25404466	     -4.84576851	      5.18427108	     -6.01694806	    -30.07831249	      0.00000000	      0.00000000	     14.65152681	    -11.12608304	     -5.24038727	    -63.53573818	    -14.06116836	      0.00000000	      0.00000000	      0.00000000	      0.00000000	      0.00000000
      2.83000000	     56.84188979	      4.20402254	     -3.86970624	      1.28702615	      1.04471542	     -0.28783037	     22.24201298	     -4.84409093	      5.18620404	     -6.00775875	    -30.07406028	      0.00000000	      0.00000000	     14.64152371	    -11.12443057	     -5.23404987	    -63.53168509	    -14.06101041	      0.00000000	      0.00000000	      0.00000000	      0.00000000	      0.00000000
      2.84000000	     56.85082254	      4.20245662	     -3.86747658	      1.28702618	      1.04472696	     -0.28783016	     22.22848590	     -4.84212763	      5.18993689	     -5.99747743	    -30.06929725	      0.00000000	      0.00000000	     14.63048675	    -11.12374058	     -5.22812950	    -63.52697734	    -14.06171452	      0.00000000	      0.00000000	      0.00000000	      0.00000000	      0.00000000
      2.85000000	     56.86023136	      4.20093517	     -3.86662503	      1.28701977	      1.04474197	     -0.28783115	     22.21464917	     -4.84031258	      5.19409182	     -5.98822264	    -30.06516007	      0.00000000	      0.00000000	     14.61901329	    -11.12373145	     -5.22382656	    -63.52237342	    -14.06313661	      0.00000000	      0.00000000	      0.00000000	      0.00000000	      0.00000000
      2.86000000	     56.87006993	      4.19962796	     -3.86731849	      1.28700435	      1.04475335	     -0.28783056	     22.20158592	     -4.83889750	      5.19723439	     -5.98157154	    -30.06248105	      0.00000000	      0.00000000	     14.60725637	    -11.12410373	     -5.22202219	    -63.51869978	    -14.06497314	      0.00000000	      0.00000000	      0.00000000	      0.00000000	      0.00000000
      2.87000000	     56.88028319	      4.19834050	     -3.86955256	      1.28698639	      1.04475787	     -0.28782693	     22.18997713	     -4.83781907	      5.19827262	     -5.97834703	    -30.06164080	      0.00000000	      0.00000000	     14.59512648	    -11.12482371	     -5.22300946	    -63.51653241	    -14.06683132	      0.00000000	      0.00000000	      0.00000000	      0.00000000	      0.00000000
      2.88000000	     56.89066992	      4.19674796	     -3.87319826	      1.28697912	      1.04475882	     -0.28782337	     22.17985116	     -4.83664127	      5.19678339	     -5.97861419	    -30.06259052	      0.00000000	      0.00000000	     14.58265309	    -11.12622752	     -5.22637753	    -63.51589818	    -14.06831956	      0.00000000	      0.00000000	      0.00000000	      0.00000000	      0.00000000
      2.89000000	     56.90094669	      4.19450079	     -3.87800966	      1.28698640	      1.04475994	     -0.28782167	     22.17074982	     -4.83469666	      5.19316395	     -5.98169537	    -30.06497418	      0.00000000	      0.00000000	     14.57021692	    -11.12871961	     -5.23121403	    -63.51627740	    -14.06913121	      0.00000000	      0.00000000	      0.00000000	      0.00000000	      0.00000000
      2.90000000	     56.91081382	      4.19125382	     -3.88354513	      1.28699129	      1.04476070	     -0.28781843	     22.16214045	     -4.83148842	      5.18850794	     -5.98627217	    -30.06829311	      0.00000000	      0.00000000	     14.55851121	    -11.13234749	     -5.23648336	    -63.51690745	    -14.06910182	      0.00000000	      0.00000000	      0.00000000	      0.00000000	      0.00000000
      2.91000000	     56.91984680	      4.18700981	     -3.88902917	      1.28697765	      1.04475917	     -0.28781235	     22.15367890	     -4.82715597	      5.18419597	     -5.99073181	    -30.07207721	      0.00000000	      0.00000000	     14.54829895	    -11.13668433	     -5.24131121	    -63.51714899	    -14.06822808	      0.00000000	      0.00000000	      0.00000000	      0.00000000	      0.00000000
      2.92000000	     56.92739872	      4.18238038	     -3.89338241	      1.28695355	      1.04475766	     -0.28780752	     22.14529475	     -4.82265236	      5.18136640	     -5.99367337	    -30.07603054	      0.00000000	      0.00000000	     14.54010680	    -11.14097499	     -5.24515038	    -63.51672389	    -14.06664747	      0.00000000	      0.00000000	      0.00000000	      0.00000000	      0.00000000
      2.93000000	     56.93281881	      4.17833322	     -3.89561752	      1.28693871	      1.04476158	     -0.28780779	     22.13723131	     -4.81937148	      5.18049563	     -5.99432893	    -30.08011958	      0.00000000	      0.00000000	     14.53404392	    -11.14431476	     -5.24788885	    -63.51573900	    -14.06459429	      0.00000000	      0.00000000	      0.00000000	      0.00000000	      0.00000000
      2.94000000	     56.93593728	      4.17571730	     -3.89538280	      1.28694038	      1.04477254	     -0.28781264	     22.12998527	     -4.81838717	      5.18123923	     -5.99275321	    -30.08458199	      0.00000000	      0.00000000	     14.52985449	    -11.14584089	     -5.24981751	    -63.51449564	    -14.06235255	      0.00000000	      0.00000000	      0.00000000	      0.00000000	      0.00000000
      2.95000000	     56.93739972	      4.17499026	     -3.89320011	      1.28695037	      1.04478497	     -0.28781832	     22.12406942	     -4.81987072	      5.18258660	     -5.98976633	    -30.08984919	      0.00000000	      0.00000000	     14.52711415	    -11.14499722	     -5.25137983	    -63.51319924	    -14.06021340	      0.00000000	      0.00000000	      0.00000000	      0.00000000	      0.00000000
      2.96000000	     56.93847952	      4.17624601	     -3.89018956	      1.28695711	      1.04479011	     -0.28782178	     22.11967966	     -4.82311753	      5.18325028	     -5.98666908	    -30.09639170	      0.00000000	      0.00000000	     14.52537766	    -11.14184238	     -5.25280939	    -63.51175099	    -14.05843053	      0.00000000	      0.00000000	      0.00000000	      0.00000000	      0.00000000
      2.97000000	     56.94044505	      4.17925697	     -3.88741657	      1.28695622	      1.04478351	     -0.28782307	     22.11652030	     -4.82706467	      5.18210487	     -5.98474693	    -30.10452475	      0.00000000	      0.00000000	     14.52412911	    -11.13715317	     -5.25393443	    -63.50978455	    -14.05717233	      0.00000000	      0.00000000	      0.00000000	      0.00000000	      0.00000000
      2.98000000	     56.94395402	      4.18332364	     -3.88529479	      1.28695026	      1.04476974	     -0.28782383	     22.11398393	     -4.83085176	      5.17850945	     -5.98471221	    -30.11425368	      0.00000000	      0.00000000	     14.52260248	    -11.13213390	     -5.25431167	    -63.50695702	    -14.05648565	      0.00000000	      0.00000000	      0.00000000	      0.00000000	      0.00000000
